<svg id="visual" viewBox="0 0 675 900" width="675" height="900" xmlns="http://www.w3.org/2000/svg" xmlns:xlink="http://www.w3.org/1999/xlink" version="1.1"><path d="M0 428L16 426.7C32 425.3 64 422.7 96.2 424.5C128.3 426.3 160.7 432.7 192.8 456C225 479.3 257 519.7 289.2 537C321.3 554.3 353.7 548.7 385.8 523.8C418 499 450 455 482.2 442C514.3 429 546.7 447 578.8 463.8C611 480.7 643 496.3 659 504.2L675 512L675 901L659 901C643 901 611 901 578.8 901C546.7 901 514.3 901 482.2 901C450 901 418 901 385.8 901C353.7 901 321.3 901 289.2 901C257 901 225 901 192.8 901C160.7 901 128.3 901 96.2 901C64 901 32 901 16 901L0 901Z" fill="#62c260"></path><path d="M0 686L16 684.7C32 683.3 64 680.7 96.2 677.2C128.3 673.7 160.7 669.3 192.8 653.8C225 638.3 257 611.7 289.2 611.7C321.3 611.7 353.7 638.3 385.8 627.7C418 617 450 569 482.2 554.3C514.3 539.7 546.7 558.3 578.8 578.7C611 599 643 621 659 632L675 643L675 901L659 901C643 901 611 901 578.8 901C546.7 901 514.3 901 482.2 901C450 901 418 901 385.8 901C353.7 901 321.3 901 289.2 901C257 901 225 901 192.8 901C160.7 901 128.3 901 96.2 901C64 901 32 901 16 901L0 901Z" fill="#50b748"></path><path d="M0 641L16 644.3C32 647.7 64 654.3 96.2 666C128.3 677.7 160.7 694.3 192.8 694.7C225 695 257 679 289.2 687.7C321.3 696.3 353.7 729.7 385.8 729.8C418 730 450 697 482.2 674.5C514.3 652 546.7 640 578.8 635C611 630 643 632 659 633L675 634L675 901L659 901C643 901 611 901 578.8 901C546.7 901 514.3 901 482.2 901C450 901 418 901 385.8 901C353.7 901 321.3 901 289.2 901C257 901 225 901 192.8 901C160.7 901 128.3 901 96.2 901C64 901 32 901 16 901L0 901Z" fill="#3cab2d"></path><path d="M0 850L16 845C32 840 64 830 96.2 818C128.3 806 160.7 792 192.8 779.2C225 766.3 257 754.7 289.2 760.2C321.3 765.7 353.7 788.3 385.8 792.3C418 796.3 450 781.7 482.2 777C514.3 772.3 546.7 777.7 578.8 780.5C611 783.3 643 783.7 659 783.8L675 784L675 901L659 901C643 901 611 901 578.8 901C546.7 901 514.3 901 482.2 901C450 901 418 901 385.8 901C353.7 901 321.3 901 289.2 901C257 901 225 901 192.8 901C160.7 901 128.3 901 96.2 901C64 901 32 901 16 901L0 901Z" fill="#239f01"></path></svg>