<svg xmlns="http://www.w3.org/2000/svg" version="1.1" xmlns:xlink="http://www.w3.org/1999/xlink" xmlns:svgjs="http://svgjs.com/svgjs" width="1440" height="560" preserveAspectRatio="none" viewBox="0 0 1440 560"><g mask="url(&quot;#SvgjsMask1852&quot;)" fill="none"><rect width="1440" height="560" x="0" y="0" fill="url(#SvgjsLinearGradient1853)"></rect><path d="M1440 0L1016.38 0L1440 81.48z" fill="rgba(255, 255, 255, .1)"></path><path d="M1016.38 0L1440 81.48L1440 237.5L612.45 0z" fill="rgba(255, 255, 255, .075)"></path><path d="M612.45 0L1440 237.5L1440 250.75L461.80000000000007 0z" fill="rgba(255, 255, 255, .05)"></path><path d="M461.80000000000007 0L1440 250.75L1440 375.44L302.82000000000005 0z" fill="rgba(255, 255, 255, .025)"></path><path d="M0 560L695.86 560L0 490.9z" fill="rgba(0, 0, 0, .1)"></path><path d="M0 490.9L695.86 560L816.86 560L0 410.82z" fill="rgba(0, 0, 0, .075)"></path><path d="M0 410.82L816.86 560L889.77 560L0 206.31z" fill="rgba(0, 0, 0, .05)"></path><path d="M0 206.31L889.77 560L1041.82 560L0 105.2z" fill="rgba(0, 0, 0, .025)"></path></g><defs><mask id="SvgjsMask1852"><rect width="1440" height="560" fill="#ffffff"></rect></mask><linearGradient x1="0%" y1="50%" x2="100%" y2="50%" gradientUnits="userSpaceOnUse" id="SvgjsLinearGradient1853"><stop stop-color="rgba(0, 194, 98, 1)" offset="0.12"></stop><stop stop-color="rgba(255, 140, 24, 1)" offset="0.99"></stop></linearGradient></defs></svg>