<svg id="visual" viewBox="0 0 675 900" width="675" height="900" xmlns="http://www.w3.org/2000/svg" xmlns:xlink="http://www.w3.org/1999/xlink" version="1.1"><path d="M0 586L16 581.5C32 577 64 568 96.2 553C128.3 538 160.7 517 192.8 504C225 491 257 486 289.2 492.8C321.3 499.7 353.7 518.3 385.8 530.8C418 543.3 450 549.7 482.2 540.2C514.3 530.7 546.7 505.3 578.8 504.7C611 504 643 528 659 540L675 552L675 901L659 901C643 901 611 901 578.8 901C546.7 901 514.3 901 482.2 901C450 901 418 901 385.8 901C353.7 901 321.3 901 289.2 901C257 901 225 901 192.8 901C160.7 901 128.3 901 96.2 901C64 901 32 901 16 901L0 901Z" fill="#f3b31e"></path><path d="M0 614L16 600.3C32 586.7 64 559.3 96.2 559.7C128.3 560 160.7 588 192.8 598C225 608 257 600 289.2 590.3C321.3 580.7 353.7 569.3 385.8 576.5C418 583.7 450 609.3 482.2 618C514.3 626.7 546.7 618.3 578.8 617.2C611 616 643 622 659 625L675 628L675 901L659 901C643 901 611 901 578.8 901C546.7 901 514.3 901 482.2 901C450 901 418 901 385.8 901C353.7 901 321.3 901 289.2 901C257 901 225 901 192.8 901C160.7 901 128.3 901 96.2 901C64 901 32 901 16 901L0 901Z" fill="#f8a617"></path><path d="M0 680L16 688C32 696 64 712 96.2 722.3C128.3 732.7 160.7 737.3 192.8 743.7C225 750 257 758 289.2 743.8C321.3 729.7 353.7 693.3 385.8 692.3C418 691.3 450 725.7 482.2 737.5C514.3 749.3 546.7 738.7 578.8 731.2C611 723.7 643 719.3 659 717.2L675 715L675 901L659 901C643 901 611 901 578.8 901C546.7 901 514.3 901 482.2 901C450 901 418 901 385.8 901C353.7 901 321.3 901 289.2 901C257 901 225 901 192.8 901C160.7 901 128.3 901 96.2 901C64 901 32 901 16 901L0 901Z" fill="#fc9916"></path><path d="M0 857L16 841.8C32 826.7 64 796.3 96.2 792.2C128.3 788 160.7 810 192.8 818.2C225 826.3 257 820.7 289.2 825C321.3 829.3 353.7 843.7 385.8 834.8C418 826 450 794 482.2 792.8C514.3 791.7 546.7 821.3 578.8 837.7C611 854 643 857 659 858.5L675 860L675 901L659 901C643 901 611 901 578.8 901C546.7 901 514.3 901 482.2 901C450 901 418 901 385.8 901C353.7 901 321.3 901 289.2 901C257 901 225 901 192.8 901C160.7 901 128.3 901 96.2 901C64 901 32 901 16 901L0 901Z" fill="#ff8c18"></path></svg>