<svg id="visual" viewBox="0 0 675 900" width="675" height="900" xmlns="http://www.w3.org/2000/svg" xmlns:xlink="http://www.w3.org/1999/xlink" version="1.1"><path d="M0 485L16 483.7C32 482.3 64 479.7 96.2 470.2C128.3 460.7 160.7 444.3 192.8 433.3C225 422.3 257 416.7 289.2 435.3C321.3 454 353.7 497 385.8 511C418 525 450 510 482.2 518.2C514.3 526.3 546.7 557.7 578.8 571.5C611 585.3 643 581.7 659 579.8L675 578L675 901L659 901C643 901 611 901 578.8 901C546.7 901 514.3 901 482.2 901C450 901 418 901 385.8 901C353.7 901 321.3 901 289.2 901C257 901 225 901 192.8 901C160.7 901 128.3 901 96.2 901C64 901 32 901 16 901L0 901Z" fill="#4d96ff"></path><path d="M0 584L16 594.5C32 605 64 626 96.2 617C128.3 608 160.7 569 192.8 570.3C225 571.7 257 613.3 289.2 632.3C321.3 651.3 353.7 647.7 385.8 634.8C418 622 450 600 482.2 582.3C514.3 564.7 546.7 551.3 578.8 540.2C611 529 643 520 659 515.5L675 511L675 901L659 901C643 901 611 901 578.8 901C546.7 901 514.3 901 482.2 901C450 901 418 901 385.8 901C353.7 901 321.3 901 289.2 901C257 901 225 901 192.8 901C160.7 901 128.3 901 96.2 901C64 901 32 901 16 901L0 901Z" fill="#387ae2"></path><path d="M0 647L16 664.2C32 681.3 64 715.7 96.2 722.8C128.3 730 160.7 710 192.8 694.7C225 679.3 257 668.7 289.2 682.2C321.3 695.7 353.7 733.3 385.8 739.5C418 745.7 450 720.3 482.2 704.5C514.3 688.7 546.7 682.3 578.8 694.3C611 706.3 643 736.7 659 751.8L675 767L675 901L659 901C643 901 611 901 578.8 901C546.7 901 514.3 901 482.2 901C450 901 418 901 385.8 901C353.7 901 321.3 901 289.2 901C257 901 225 901 192.8 901C160.7 901 128.3 901 96.2 901C64 901 32 901 16 901L0 901Z" fill="#215fc5"></path><path d="M0 720L16 735.3C32 750.7 64 781.3 96.2 794.2C128.3 807 160.7 802 192.8 793.7C225 785.3 257 773.7 289.2 776C321.3 778.3 353.7 794.7 385.8 792.5C418 790.3 450 769.7 482.2 764.5C514.3 759.3 546.7 769.7 578.8 785.3C611 801 643 822 659 832.5L675 843L675 901L659 901C643 901 611 901 578.8 901C546.7 901 514.3 901 482.2 901C450 901 418 901 385.8 901C353.7 901 321.3 901 289.2 901C257 901 225 901 192.8 901C160.7 901 128.3 901 96.2 901C64 901 32 901 16 901L0 901Z" fill="#0045a8"></path></svg>