<svg id="visual" viewBox="0 0 960 540" width="960" height="540" xmlns="http://www.w3.org/2000/svg" xmlns:xlink="http://www.w3.org/1999/xlink" version="1.1"><g transform="translate(1086.341534705298 -51.991840673702285)"><path d="M280.1 -340.1C346.2 -337.4 371.4 -233.1 317.9 -159.5C264.4 -85.9 132.2 -43 75.7 -8.3C19.2 26.4 38.4 52.9 38.4 153.7C38.4 254.5 19.2 429.8 -48 495.8C-115.2 561.9 -230.4 518.8 -358.8 459.7C-487.2 400.6 -628.8 325.4 -594.3 238.6C-559.9 151.8 -349.4 53.4 -292.2 -86.4C-235 -226.1 -331.2 -407.1 -308 -423.8C-284.9 -440.4 -142.4 -292.7 -17.7 -268.3C107 -243.9 214 -342.8 280.1 -340.1" fill="#ff8c18"></path></g></svg>