<svg xmlns="http://www.w3.org/2000/svg" version="1.1" xmlns:xlink="http://www.w3.org/1999/xlink" xmlns:svgjs="http://svgjs.com/svgjs" width="1440" height="560" preserveAspectRatio="none" viewBox="0 0 1440 560"><g mask="url(&quot;#SvgjsMask1297&quot;)" fill="none"><rect width="1440" height="560" x="0" y="0" fill="rgba(255, 255, 255, 1)"></rect><rect width="60" height="60" clip-path="url(&quot;#SvgjsClipPath1298&quot;)" x="1333.37" y="414.04" fill="url(#SvgjsPattern1299)" transform="rotate(226.88, 1363.37, 444.04)"></rect><rect width="216" height="216" clip-path="url(&quot;#SvgjsClipPath1300&quot;)" x="72.21" y="313.86" fill="url(#SvgjsPattern1301)" transform="rotate(297.17, 180.21, 421.86)"></rect><rect width="192" height="192" clip-path="url(&quot;#SvgjsClipPath1302&quot;)" x="252.85" y="430.86" fill="url(#SvgjsPattern1303)" transform="rotate(359.7, 348.85, 526.86)"></rect><path d="M1001.79 156.22 L1017.4499999999999 220.29999999999998L977.3905837668307 220.48941623316924z" fill="rgba(236, 10, 122, 1)"></path><path d="M1075.16 331.06L1067.17 341.07 1055.65 335.47 1047.66 345.48 1036.15 339.88 1028.15 349.88 1016.64 344.28" stroke="rgba(54, 112, 218, 1)" stroke-width="1.98" stroke-dasharray="3, 2"></path><path d="M427.26 202.05 L566.85 151.56L557.0572160525506 236.8072160525506z" stroke="rgba(35, 159, 1, 1)" stroke-width="1.35"></path><path d="M1250.26 24.490000000000002 L1208.23 137.17L1311.4538900002324 163.03889000023258z" stroke="rgba(255, 140, 24, 1)" stroke-width="2.13" stroke-dasharray="2, 2"></path><path d="M761.0600000000001 346.92999999999995 L856.54 288.37L755.9883089255749 264.8383089255749z" fill="rgba(54, 112, 218, 1)"></path><rect width="372" height="372" clip-path="url(&quot;#SvgjsClipPath1304&quot;)" x="971.77" y="304.99" fill="url(#SvgjsPattern1305)" transform="rotate(252.48, 1157.77, 490.99)"></rect><path d="M96.17 101.09L108.28 96.95 114.99 107.86 127.1 103.71 133.81 114.63 145.92 110.48 152.63 121.39" stroke="rgba(134, 90, 225, 1)" stroke-width="1" stroke-dasharray="4, 4"></path><path d="M1128.56 226.54a5.6 5.6 0 1 0 7.93 7.91 5.6 5.6 0 1 0-7.93-7.91zM1139.89 237.84a5.6 5.6 0 1 0 7.93 7.91 5.6 5.6 0 1 0-7.93-7.91zM1151.22 249.14a5.6 5.6 0 1 0 7.93 7.91 5.6 5.6 0 1 0-7.93-7.91zM1162.54 260.44a5.6 5.6 0 1 0 7.93 7.91 5.6 5.6 0 1 0-7.93-7.91zM1094.61 215.27a5.6 5.6 0 1 0 7.93 7.91 5.6 5.6 0 1 0-7.93-7.91zM1105.93 226.57a5.6 5.6 0 1 0 7.93 7.91 5.6 5.6 0 1 0-7.93-7.91zM1117.26 237.87a5.6 5.6 0 1 0 7.93 7.91 5.6 5.6 0 1 0-7.93-7.91zM1128.59 249.17a5.6 5.6 0 1 0 7.93 7.91 5.6 5.6 0 1 0-7.93-7.91z" fill="rgba(134, 90, 225, 1)"></path><rect width="336" height="336" clip-path="url(&quot;#SvgjsClipPath1306&quot;)" x="412.6" y="-135.72" fill="url(#SvgjsPattern1307)" transform="rotate(129.42, 580.6, 32.28)"></rect></g><defs><mask id="SvgjsMask1297"><rect width="1440" height="560" fill="#ffffff"></rect></mask><pattern x="0" y="0" width="6" height="6" patternUnits="userSpaceOnUse" id="SvgjsPattern1299"><path d="M3 1L3 5M1 3L5 3" stroke="rgba(35, 159, 1, 1)" fill="none" stroke-width="1"></path></pattern><clipPath id="SvgjsClipPath1298"><circle r="15" cx="1363.37" cy="444.04"></circle></clipPath><pattern x="0" y="0" width="216" height="6" patternUnits="userSpaceOnUse" id="SvgjsPattern1301"><rect width="216" height="3" x="0" y="0" fill="rgba(255, 140, 24, 1)"></rect><rect width="216" height="3" x="0" y="3" fill="rgba(0, 0, 0, 0)"></rect></pattern><clipPath id="SvgjsClipPath1300"><circle r="54" cx="180.21" cy="421.86"></circle></clipPath><pattern x="0" y="0" width="6" height="6" patternUnits="userSpaceOnUse" id="SvgjsPattern1303"><path d="M0 6L3 0L6 6" stroke="rgba(134, 90, 225, 1)" fill="none"></path></pattern><clipPath id="SvgjsClipPath1302"><circle r="48" cx="348.85" cy="526.86"></circle></clipPath><pattern x="0" y="0" width="6" height="6" patternUnits="userSpaceOnUse" id="SvgjsPattern1305"><path d="M0 6L3 0L6 6" stroke="rgba(236, 10, 122, 1)" fill="none"></path></pattern><clipPath id="SvgjsClipPath1304"><circle r="93" cx="1157.77" cy="490.99"></circle></clipPath><pattern x="0" y="0" width="6" height="6" patternUnits="userSpaceOnUse" id="SvgjsPattern1307"><path d="M0 6L3 0L6 6" stroke="rgba(255, 140, 24, 1)" fill="none"></path></pattern><clipPath id="SvgjsClipPath1306"><circle r="84" cx="580.6" cy="32.28"></circle></clipPath></defs></svg>