<svg xmlns="http://www.w3.org/2000/svg" version="1.1" xmlns:xlink="http://www.w3.org/1999/xlink" xmlns:svgjs="http://svgjs.com/svgjs" width="1440" height="560" preserveAspectRatio="none" viewBox="0 0 1440 560"><g mask="url(&quot;#SvgjsMask1205&quot;)" fill="none"><rect width="1440" height="560" x="0" y="0" fill="rgba(255, 140, 24, 1)"></rect><path d="M73.88 -39.21L177.81 20.79L177.81 140.79L73.88 200.79L-30.05 140.79L-30.05 20.79zM177.81 140.79L281.73 200.79L281.73 320.79L177.81 380.79L73.88 320.79L73.88 200.79zM73.88 320.79L177.81 380.79L177.81 500.79L73.88 560.79L-30.05 500.79L-30.05 380.79zM177.81 500.79L281.73 560.79L281.73 680.79L177.81 740.79L73.88 680.79L73.88 560.79zM281.73 320.79L385.66 380.79L385.66 500.79L281.73 560.79L177.81 500.79L177.81 380.79zM385.66 500.79L489.58 560.79L489.58 680.79L385.66 740.79L281.73 680.79L281.73 560.79zM697.44 -39.21L801.36 20.79L801.36 140.79L697.44 200.79L593.51 140.79L593.51 20.79zM801.36 140.79L905.29 200.79L905.29 320.79L801.36 380.79L697.44 320.79L697.44 200.79zM1217.07 140.79L1320.99 200.79L1320.99 320.79L1217.07 380.79L1113.14 320.79L1113.14 200.79zM1113.14 320.79L1217.07 380.79L1217.07 500.79L1113.14 560.79L1009.21 500.79L1009.21 380.79zM1424.92 140.79L1528.84 200.79L1528.84 320.79L1424.92 380.79L1320.99 320.79L1320.99 200.79zM1424.92 500.79L1528.84 560.79L1528.84 680.79L1424.92 740.79L1320.99 680.79L1320.99 560.79z" stroke="rgba(243, 179, 30, 0.84)" stroke-width="2"></path><path d="M61.88 -39.21 a12 12 0 1 0 24 0 a12 12 0 1 0 -24 0zM165.81 20.79 a12 12 0 1 0 24 0 a12 12 0 1 0 -24 0zM165.81 140.79 a12 12 0 1 0 24 0 a12 12 0 1 0 -24 0zM61.88 200.79 a12 12 0 1 0 24 0 a12 12 0 1 0 -24 0zM-42.05 140.79 a12 12 0 1 0 24 0 a12 12 0 1 0 -24 0zM-42.05 20.79 a12 12 0 1 0 24 0 a12 12 0 1 0 -24 0zM269.73 200.79 a12 12 0 1 0 24 0 a12 12 0 1 0 -24 0zM269.73 320.79 a12 12 0 1 0 24 0 a12 12 0 1 0 -24 0zM165.81 380.79 a12 12 0 1 0 24 0 a12 12 0 1 0 -24 0zM61.88 320.79 a12 12 0 1 0 24 0 a12 12 0 1 0 -24 0zM165.81 500.79 a12 12 0 1 0 24 0 a12 12 0 1 0 -24 0zM61.88 560.79 a12 12 0 1 0 24 0 a12 12 0 1 0 -24 0zM-42.05 500.79 a12 12 0 1 0 24 0 a12 12 0 1 0 -24 0zM-42.05 380.79 a12 12 0 1 0 24 0 a12 12 0 1 0 -24 0zM269.73 560.79 a12 12 0 1 0 24 0 a12 12 0 1 0 -24 0zM269.73 680.79 a12 12 0 1 0 24 0 a12 12 0 1 0 -24 0zM165.81 740.79 a12 12 0 1 0 24 0 a12 12 0 1 0 -24 0zM61.88 680.79 a12 12 0 1 0 24 0 a12 12 0 1 0 -24 0zM373.66 380.79 a12 12 0 1 0 24 0 a12 12 0 1 0 -24 0zM373.66 500.79 a12 12 0 1 0 24 0 a12 12 0 1 0 -24 0zM477.58 560.79 a12 12 0 1 0 24 0 a12 12 0 1 0 -24 0zM477.58 680.79 a12 12 0 1 0 24 0 a12 12 0 1 0 -24 0zM373.66 740.79 a12 12 0 1 0 24 0 a12 12 0 1 0 -24 0zM685.44 -39.21 a12 12 0 1 0 24 0 a12 12 0 1 0 -24 0zM789.36 20.79 a12 12 0 1 0 24 0 a12 12 0 1 0 -24 0zM789.36 140.79 a12 12 0 1 0 24 0 a12 12 0 1 0 -24 0zM685.44 200.79 a12 12 0 1 0 24 0 a12 12 0 1 0 -24 0zM581.51 140.79 a12 12 0 1 0 24 0 a12 12 0 1 0 -24 0zM581.51 20.79 a12 12 0 1 0 24 0 a12 12 0 1 0 -24 0zM893.29 200.79 a12 12 0 1 0 24 0 a12 12 0 1 0 -24 0zM893.29 320.79 a12 12 0 1 0 24 0 a12 12 0 1 0 -24 0zM789.36 380.79 a12 12 0 1 0 24 0 a12 12 0 1 0 -24 0zM685.44 320.79 a12 12 0 1 0 24 0 a12 12 0 1 0 -24 0zM1205.07 140.79 a12 12 0 1 0 24 0 a12 12 0 1 0 -24 0zM1308.99 200.79 a12 12 0 1 0 24 0 a12 12 0 1 0 -24 0zM1308.99 320.79 a12 12 0 1 0 24 0 a12 12 0 1 0 -24 0zM1205.07 380.79 a12 12 0 1 0 24 0 a12 12 0 1 0 -24 0zM1101.14 320.79 a12 12 0 1 0 24 0 a12 12 0 1 0 -24 0zM1101.14 200.79 a12 12 0 1 0 24 0 a12 12 0 1 0 -24 0zM1205.07 500.79 a12 12 0 1 0 24 0 a12 12 0 1 0 -24 0zM1101.14 560.79 a12 12 0 1 0 24 0 a12 12 0 1 0 -24 0zM997.21 500.79 a12 12 0 1 0 24 0 a12 12 0 1 0 -24 0zM997.21 380.79 a12 12 0 1 0 24 0 a12 12 0 1 0 -24 0zM1412.92 140.79 a12 12 0 1 0 24 0 a12 12 0 1 0 -24 0zM1516.84 200.79 a12 12 0 1 0 24 0 a12 12 0 1 0 -24 0zM1516.84 320.79 a12 12 0 1 0 24 0 a12 12 0 1 0 -24 0zM1412.92 380.79 a12 12 0 1 0 24 0 a12 12 0 1 0 -24 0zM1412.92 500.79 a12 12 0 1 0 24 0 a12 12 0 1 0 -24 0zM1516.84 560.79 a12 12 0 1 0 24 0 a12 12 0 1 0 -24 0zM1516.84 680.79 a12 12 0 1 0 24 0 a12 12 0 1 0 -24 0zM1412.92 740.79 a12 12 0 1 0 24 0 a12 12 0 1 0 -24 0zM1308.99 680.79 a12 12 0 1 0 24 0 a12 12 0 1 0 -24 0zM1308.99 560.79 a12 12 0 1 0 24 0 a12 12 0 1 0 -24 0z" fill="rgba(243, 179, 30, 0.84)"></path><path d="M72.21 301.3L134.56 337.3L134.56 409.3L72.21 445.3L9.85 409.3L9.85 337.3zM196.92 301.3L259.27 337.3L259.27 409.3L196.92 445.3L134.56 409.3L134.56 337.3zM259.27 -22.7L321.63 13.3L321.63 85.3L259.27 121.3L196.92 85.3L196.92 13.3zM321.63 301.3L383.98 337.3L383.98 409.3L321.63 445.3L259.27 409.3L259.27 337.3zM321.63 517.3L383.98 553.3L383.98 625.3L321.63 661.3L259.27 625.3L259.27 553.3zM446.34 85.3L508.69 121.3L508.69 193.3L446.34 229.3L383.98 193.3L383.98 121.3zM571.05 301.3L633.41 337.3L633.41 409.3L571.05 445.3L508.69 409.3L508.69 337.3zM633.41 193.3L695.76 229.3L695.76 301.3L633.41 337.3L571.05 301.3L571.05 229.3zM882.83 -22.7L945.18 13.3L945.18 85.3L882.83 121.3L820.47 85.3L820.47 13.3zM945.18 301.3L1007.54 337.3L1007.54 409.3L945.18 445.3L882.83 409.3L882.83 337.3zM1007.54 -22.7L1069.9 13.3L1069.9 85.3L1007.54 121.3L945.18 85.3L945.18 13.3zM1007.54 409.3L1069.9 445.3L1069.9 517.3L1007.54 553.3L945.18 517.3L945.18 445.3zM1132.25 -22.7L1194.61 13.3L1194.61 85.3L1132.25 121.3L1069.9 85.3L1069.9 13.3zM1256.96 -22.7L1319.32 13.3L1319.32 85.3L1256.96 121.3L1194.61 85.3L1194.61 13.3zM1444.03 517.3L1506.38 553.3L1506.38 625.3L1444.03 661.3L1381.67 625.3L1381.67 553.3z" stroke="rgba(255, 255, 255, 1)" stroke-width="2"></path></g><defs><mask id="SvgjsMask1205"><rect width="1440" height="560" fill="#ffffff"></rect></mask></defs></svg>